# xmcd
#
# Track frame offsets:
#	150
#	10988
#	22713
#	34458
#	48210
#	61663
#	72510
#	83968
#	97260
#	108563
#	120885
#	134348
#	147755
#	158325
#	174200
#	187668
#	199210
#
# Disc length: 2826
#
# Revision: 2
# Processed by: cddbd v1.5.1PL0 Copyright (c) Steve Scherf et al.
# Submitted via: EasyCD 2.21 - (C) 1996 Greg Leichner
# Normalized: r1:DSETVAR1,TDELIM( - )
#
DISCID=d50b0811
DTITLE=Various Artist - Sowl Power ~ The Very Best Of Rhythm and Blues [CD 1)
DYEAR=1900
DGENRE=
TTITLE0=Aretha Franklin - Respect
TTITLE1=Sam And Dave - Soul Man
TTITLE2=Otis Redding - I Can't Turn You Loose
TTITLE3=Eddie Floyd - Knock On Wood
TTITLE4=Joe Turner - Shake, Rattle And Roll
TTITLE5=Wilson Pickett - Land Of 1000 Dances
TTITLE6=Ray Charles - Hallelujah, I Love Her So
TTITLE7=King Kurtis - Menphis Soul Stew
TTITLE8=Doris Troy - Just One Look
TTITLE9=Solomon Burke - Everybody Needs Somebody To Love
TTITLE10=Otis Redding And Carla Thomas - Tramp
TTITLE11=Don Covay - See-Saw
TTITLE12=Arthur Conley - Sweet Soul Music
TTITLE13=Aretha Franklin - I Say A Little Prayer
TTITLE14=Ben E. King - Stand By Me
TTITLE15=Chuck Willis - C.C. Rider
TTITLE16=Booker T and The M.G.'s - Green Onions
EXTD=
EXTT0=
EXTT1=
EXTT2=
EXTT3=
EXTT4=
EXTT5=
EXTT6=
EXTT7=
EXTT8=
EXTT9=
EXTT10=
EXTT11=
EXTT12=
EXTT13=
EXTT14=
EXTT15=
EXTT16=
PLAYORDER=
